<?xml version="1.0" encoding="UTF-8"?>
<svg version="1.1" xmlns="http://www.w3.org/2000/svg" width="234" height="39">
<path d="M0 0 C1.19496094 -0.00386719 1.19496094 -0.00386719 2.4140625 -0.0078125 C3.24679688 -0.00007812 4.07953125 0.00765625 4.9375 0.015625 C5.77023438 0.00789062 6.60296875 0.00015625 7.4609375 -0.0078125 C8.25757813 -0.00523438 9.05421875 -0.00265625 9.875 0 C10.60589844 0.00225586 11.33679688 0.00451172 12.08984375 0.00683594 C13.9375 0.265625 13.9375 0.265625 15.9375 2.265625 C16.16455078 5.33837891 16.16455078 5.33837891 16.1328125 9.2421875 C16.1299826 9.927435 16.12715271 10.6126825 16.12423706 11.31869507 C16.11303281 13.50951527 16.08792859 15.69992816 16.0625 17.890625 C16.05247048 19.3749941 16.04334458 20.8593696 16.03515625 22.34375 C16.01309294 25.98450761 15.97856176 29.62502656 15.9375 33.265625 C12.9675 33.265625 9.9975 33.265625 6.9375 33.265625 C6.9375 30.955625 6.9375 28.645625 6.9375 26.265625 C5.6175 26.265625 4.2975 26.265625 2.9375 26.265625 C2.9375 28.575625 2.9375 30.885625 2.9375 33.265625 C-0.0325 33.265625 -3.0025 33.265625 -6.0625 33.265625 C-6.11188149 28.88738583 -6.1482104 24.50929354 -6.17236328 20.13085938 C-6.18243043 18.6409218 -6.19608518 17.15100403 -6.21337891 15.66113281 C-6.23759653 13.52143472 -6.24897564 11.38199747 -6.2578125 9.2421875 C-6.27352295 7.30980225 -6.27352295 7.30980225 -6.28955078 5.33837891 C-5.94426036 0.66544855 -4.3094555 0.01330079 0 0 Z M3.9375 5.265625 C2.54593516 6.42839532 2.54593516 6.42839532 2.83984375 9.64453125 C2.84651631 11.03909577 2.85847468 12.43364243 2.875 13.828125 C2.87951172 14.53904297 2.88402344 15.24996094 2.88867188 15.98242188 C2.90049136 17.74352513 2.91842737 19.50458536 2.9375 21.265625 C4.2575 21.265625 5.5775 21.265625 6.9375 21.265625 C6.9375 16.315625 6.9375 11.365625 6.9375 6.265625 C5.9475 5.935625 4.9575 5.605625 3.9375 5.265625 Z " fill="#FF0000" transform="translate(25.0625,-0.265625)"/>
<path d="M0 0 C1.18613892 0.00785522 1.18613892 0.00785522 2.39624023 0.01586914 C3.67724609 0.02070312 3.67724609 0.02070312 4.98413086 0.02563477 C5.88196289 0.03401367 6.77979492 0.04239258 7.70483398 0.05102539 C8.6065332 0.05553711 9.50823242 0.06004883 10.43725586 0.06469727 C12.67234712 0.07652315 14.90730835 0.09300319 17.14233398 0.11352539 C17.24128496 4.04606547 17.31383818 7.97812285 17.36206055 11.91162109 C17.39204679 13.90691553 17.44287184 15.90186121 17.49389648 17.89672852 C17.50678711 19.1503418 17.51967773 20.40395508 17.53295898 21.69555664 C17.55390625 22.85289307 17.57485352 24.01022949 17.59643555 25.20263672 C17.14233398 28.11352539 17.14233398 28.11352539 15.34741211 29.99633789 C12.09509284 31.64410283 8.94444214 31.43196321 5.39233398 31.30102539 C4.69495117 31.28749023 3.99756836 31.27395508 3.27905273 31.26000977 C1.56647858 31.22481989 -0.14569543 31.17101694 -1.85766602 31.11352539 C-1.85766602 29.46352539 -1.85766602 27.81352539 -1.85766602 26.11352539 C1.44233398 26.11352539 4.74233398 26.11352539 8.14233398 26.11352539 C8.14233398 25.45352539 8.14233398 24.79352539 8.14233398 24.11352539 C7.51584961 24.13672852 6.88936523 24.15993164 6.24389648 24.18383789 C5.01799805 24.2109082 5.01799805 24.2109082 3.76733398 24.23852539 C2.54916992 24.27333008 2.54916992 24.27333008 1.30639648 24.30883789 C-0.85766602 24.11352539 -0.85766602 24.11352539 -2.85766602 22.11352539 C-3.10058594 19.97460938 -3.10058594 19.97460938 -3.08813477 17.35961914 C-3.08620117 16.42311523 -3.08426758 15.48661133 -3.08227539 14.52172852 C-3.0700293 13.54139648 -3.0577832 12.56106445 -3.04516602 11.55102539 C-3.04452148 10.56682617 -3.04387695 9.58262695 -3.04321289 8.56860352 C-2.99119893 0.18279767 -2.99119893 0.18279767 0 0 Z M5.14233398 5.11352539 C5.14233398 9.40352539 5.14233398 13.69352539 5.14233398 18.11352539 C6.46233398 18.11352539 7.78233398 18.11352539 9.14233398 18.11352539 C9.14233398 14.15352539 9.14233398 10.19352539 9.14233398 6.11352539 C7.82233398 5.78352539 6.50233398 5.45352539 5.14233398 5.11352539 Z " fill="#FFCC00" transform="translate(216.857666015625,7.886474609375)"/>
<path d="M0 0 C3.09375 -0.04125 6.1875 -0.0825 9.375 -0.125 C10.83558838 -0.15231201 10.83558838 -0.15231201 12.32568359 -0.18017578 C13.09219238 -0.1851709 13.85870117 -0.19016602 14.6484375 -0.1953125 C15.82672119 -0.21102295 15.82672119 -0.21102295 17.02880859 -0.22705078 C19 0 19 0 21 2 C21.22705078 4.33837891 21.22705078 4.33837891 21.1953125 7.2265625 C21.18886719 8.2578125 21.18242187 9.2890625 21.17578125 10.3515625 C21.15902344 11.43179687 21.14226562 12.51203125 21.125 13.625 C21.11597656 14.71296875 21.10695312 15.8009375 21.09765625 16.921875 C21.07403409 19.61480152 21.04109556 22.30729255 21 25 C18.03 25 15.06 25 12 25 C12 18.4 12 11.8 12 5 C11.01 5 10.02 5 9 5 C9 11.6 9 18.2 9 25 C6.03 25 3.06 25 0 25 C0 16.75 0 8.5 0 0 Z " fill="#FFCC00" transform="translate(189,8)"/>
<path d="M0 0 C0.79792969 0.00386719 1.59585938 0.00773438 2.41796875 0.01171875 C3.21589844 0.00785156 4.01382813 0.00398437 4.8359375 0 C10.79136108 0.01011108 10.79136108 0.01011108 11.91796875 1.13671875 C11.99055821 3.32311328 12.00170658 5.51172264 11.98046875 7.69921875 C11.97144531 8.89675781 11.96242187 10.09429687 11.953125 11.328125 C11.94152344 12.25496094 11.92992187 13.18179687 11.91796875 14.13671875 C8.28796875 14.13671875 4.65796875 14.13671875 0.91796875 14.13671875 C0.91796875 16.11671875 0.91796875 18.09671875 0.91796875 20.13671875 C1.90796875 20.13671875 2.89796875 20.13671875 3.91796875 20.13671875 C3.91796875 18.48671875 3.91796875 16.83671875 3.91796875 15.13671875 C6.55796875 15.13671875 9.19796875 15.13671875 11.91796875 15.13671875 C12.2109375 21.19140625 12.2109375 21.19140625 11.91796875 23.13671875 C8.34675157 25.5175302 6.65122242 25.40578746 2.41796875 25.38671875 C1.27328125 25.391875 0.12859375 25.39703125 -1.05078125 25.40234375 C-4.08203125 25.13671875 -4.08203125 25.13671875 -7.08203125 23.13671875 C-7.43847656 20.90600586 -7.43847656 20.90600586 -7.41015625 18.1640625 C-7.405 17.18244141 -7.39984375 16.20082031 -7.39453125 15.18945312 C-7.37390625 14.16142578 -7.35328125 13.13339844 -7.33203125 12.07421875 C-7.326875 11.04232422 -7.32171875 10.01042969 -7.31640625 8.94726562 C-7.22241542 0.01226217 -7.22241542 0.01226217 0 0 Z M0.91796875 5.13671875 C0.91796875 6.78671875 0.91796875 8.43671875 0.91796875 10.13671875 C1.90796875 10.13671875 2.89796875 10.13671875 3.91796875 10.13671875 C3.91796875 8.48671875 3.91796875 6.83671875 3.91796875 5.13671875 C2.92796875 5.13671875 1.93796875 5.13671875 0.91796875 5.13671875 Z " fill="#FFCC00" transform="translate(118.08203125,7.86328125)"/>
<path d="M0 0 C0.79792969 0.00386719 1.59585938 0.00773438 2.41796875 0.01171875 C3.21589844 0.00785156 4.01382813 0.00398437 4.8359375 0 C10.79136108 0.01011108 10.79136108 0.01011108 11.91796875 1.13671875 C11.99055821 3.32311328 12.00170658 5.51172264 11.98046875 7.69921875 C11.97144531 8.89675781 11.96242188 10.09429687 11.953125 11.328125 C11.94152344 12.25496094 11.92992188 13.18179687 11.91796875 14.13671875 C8.28796875 14.13671875 4.65796875 14.13671875 0.91796875 14.13671875 C0.91796875 16.11671875 0.91796875 18.09671875 0.91796875 20.13671875 C1.90796875 20.13671875 2.89796875 20.13671875 3.91796875 20.13671875 C3.91796875 18.48671875 3.91796875 16.83671875 3.91796875 15.13671875 C6.55796875 15.13671875 9.19796875 15.13671875 11.91796875 15.13671875 C12.2109375 21.19140625 12.2109375 21.19140625 11.91796875 23.13671875 C8.34675157 25.5175302 6.65122242 25.40578746 2.41796875 25.38671875 C1.27328125 25.391875 0.12859375 25.39703125 -1.05078125 25.40234375 C-4.08203125 25.13671875 -4.08203125 25.13671875 -7.08203125 23.13671875 C-7.43847656 20.90600586 -7.43847656 20.90600586 -7.41015625 18.1640625 C-7.405 17.18244141 -7.39984375 16.20082031 -7.39453125 15.18945312 C-7.37390625 14.16142578 -7.35328125 13.13339844 -7.33203125 12.07421875 C-7.326875 11.04232422 -7.32171875 10.01042969 -7.31640625 8.94726562 C-7.22241542 0.01226217 -7.22241542 0.01226217 0 0 Z M0.91796875 5.13671875 C0.91796875 6.78671875 0.91796875 8.43671875 0.91796875 10.13671875 C1.90796875 10.13671875 2.89796875 10.13671875 3.91796875 10.13671875 C3.91796875 8.48671875 3.91796875 6.83671875 3.91796875 5.13671875 C2.92796875 5.13671875 1.93796875 5.13671875 0.91796875 5.13671875 Z " fill="#FFCC00" transform="translate(71.08203125,7.86328125)"/>
<path d="M0 0 C0.804375 -0.00128906 1.60875 -0.00257813 2.4375 -0.00390625 C3.283125 -0.00003906 4.12875 0.00382813 5 0.0078125 C6.2684375 0.00201172 6.2684375 0.00201172 7.5625 -0.00390625 C8.366875 -0.00261719 9.17125 -0.00132812 10 0 C10.7425 0.00112793 11.485 0.00225586 12.25 0.00341797 C14 0.1328125 14 0.1328125 15 1.1328125 C15.04092937 3.46578683 15.04241723 5.79986475 15 8.1328125 C12.36 8.1328125 9.72 8.1328125 7 8.1328125 C7 7.1428125 7 6.1528125 7 5.1328125 C5.68 5.1328125 4.36 5.1328125 3 5.1328125 C3 6.1228125 3 7.1128125 3 8.1328125 C3.78246094 8.33777344 4.56492188 8.54273438 5.37109375 8.75390625 C6.38300781 9.02332031 7.39492187 9.29273438 8.4375 9.5703125 C9.95150391 9.97056641 9.95150391 9.97056641 11.49609375 10.37890625 C14 11.1328125 14 11.1328125 15 12.1328125 C15.15091913 13.94093974 15.22169008 15.75611867 15.25 17.5703125 C15.27578125 18.55902344 15.3015625 19.54773438 15.328125 20.56640625 C15.21984375 21.41332031 15.1115625 22.26023437 15 23.1328125 C11.32077133 25.58563161 9.37740649 25.40105169 5 25.3828125 C3.7625 25.38796875 2.525 25.393125 1.25 25.3984375 C-2 25.1328125 -2 25.1328125 -5 23.1328125 C-5.40843923 20.42077598 -5.13336867 17.8890983 -5 15.1328125 C-2.36 15.1328125 0.28 15.1328125 3 15.1328125 C3.33 16.4528125 3.66 17.7728125 4 19.1328125 C4.66 19.1328125 5.32 19.1328125 6 19.1328125 C6 18.1428125 6 17.1528125 6 16.1328125 C5.28972656 15.85566406 4.57945312 15.57851563 3.84765625 15.29296875 C2.92855469 14.93074219 2.00945312 14.56851562 1.0625 14.1953125 C0.14597656 13.83566406 -0.77054688 13.47601563 -1.71484375 13.10546875 C-4 12.1328125 -4 12.1328125 -5 11.1328125 C-5.09823937 9.46852199 -5.12973631 7.79999319 -5.125 6.1328125 C-5.12757813 5.2253125 -5.13015625 4.3178125 -5.1328125 3.3828125 C-4.90701632 -0.44244038 -3.41821025 0.00519259 0 0 Z " fill="#FFCC00" transform="translate(139,7.8671875)"/>
<path d="M0 0 C5.28 0 10.56 0 16 0 C16 1.65 16 3.3 16 5 C13.69 5 11.38 5 9 5 C9 6.32 9 7.64 9 9 C11.31 9 13.62 9 16 9 C16 10.65 16 12.3 16 14 C13.69 14 11.38 14 9 14 C9 18.62 9 23.24 9 28 C11.31 28 13.62 28 16 28 C16 29.65 16 31.3 16 33 C10.72 33 5.44 33 0 33 C0 22.11 0 11.22 0 0 Z " fill="#FF0000" transform="translate(0,0)"/>
<path d="M0 0 C6.6 0 13.2 0 20 0 C20 1.65 20 3.3 20 5 C18.35 5 16.7 5 15 5 C15 14.24 15 23.48 15 33 C12.03 33 9.06 33 6 33 C6 23.76 6 14.52 6 5 C4.02 5 2.04 5 0 5 C0 3.35 0 1.7 0 0 Z " fill="#FF0000" transform="translate(43,0)"/>
<path d="M0 0 C3.114375 -0.020625 6.22875 -0.04125 9.4375 -0.0625 C10.91174438 -0.07615601 10.91174438 -0.07615601 12.41577148 -0.09008789 C13.18477783 -0.09258545 13.95378418 -0.09508301 14.74609375 -0.09765625 C15.93223267 -0.10551147 15.93223267 -0.10551147 17.14233398 -0.11352539 C19 0 19 0 20 1 C20.07226502 2.85287502 20.0838122 4.70833878 20.0625 6.5625 C20.05347656 7.57441406 20.04445313 8.58632813 20.03515625 9.62890625 C20.02355469 10.41136719 20.01195313 11.19382812 20 12 C17.36 12 14.72 12 12 12 C12 9.69 12 7.38 12 5 C11.01 5 10.02 5 9 5 C9 11.6 9 18.2 9 25 C6.03 25 3.06 25 0 25 C0 16.75 0 8.5 0 0 Z " fill="#FFCC00" transform="translate(88,8)"/>
<path d="M0 0 C2.97 0 5.94 0 9 0 C9 2.31 9 4.62 9 7 C10.32 7 11.64 7 13 7 C13 8.32 13 9.64 13 11 C11.68 11 10.36 11 9 11 C9 16.28 9 21.56 9 27 C10.32 27 11.64 27 13 27 C13 28.65 13 30.3 13 32 C4.18584071 32.29380531 4.18584071 32.29380531 1 30 C-0.65497356 26.69005287 -0.10084335 23.00877 -0.0625 19.375 C-0.05798828 18.57320312 -0.05347656 17.77140625 -0.04882812 16.9453125 C-0.03703168 14.96350994 -0.01909605 12.98174567 0 11 C-0.66 11 -1.32 11 -2 11 C-2 9.68 -2 8.36 -2 7 C-1.34 7 -0.68 7 0 7 C0 4.69 0 2.38 0 0 Z " fill="#FFCC00" transform="translate(158,1)"/>
<path d="M0 0 C2.64 0 5.28 0 8 0 C8 8.25 8 16.5 8 25 C5.36 25 2.72 25 0 25 C0 16.75 0 8.5 0 0 Z " fill="#FFCC00" transform="translate(176,8)"/>
<path d="M0 0 C2.64 0 5.28 0 8 0 C8 1.65 8 3.3 8 5 C5.36 5 2.72 5 0 5 C0 3.35 0 1.7 0 0 Z " fill="#FFCC00" transform="translate(176,0)"/>
</svg>
